<svg width="573" height="572" viewBox="0 0 573 572" fill="none" xmlns="http://www.w3.org/2000/svg">
<g clip-path="url(#clip0_10_142)">
<g clip-path="url(#clip1_10_142)">
<g clip-path="url(#clip2_10_142)">
<path d="M572.25 0.140015H0.75V571.64H572.25V0.140015Z" fill="white"/>
<path d="M305.171 537.545C406.048 537.545 487.824 455.768 487.824 354.892C487.824 254.016 406.048 172.239 305.171 172.239C204.295 172.239 122.519 254.016 122.519 354.892C122.519 455.768 204.295 537.545 305.171 537.545Z" fill="#FDF5E6"/>
<path d="M497.955 189.907C476.522 171.311 450.256 159.173 422.202 154.902C422.122 154.921 422.04 154.921 421.96 154.903C421.881 154.885 421.806 154.85 421.741 154.799C421.678 154.748 421.626 154.683 421.59 154.61C421.554 154.536 421.536 154.455 421.536 154.374C421.536 154.292 421.554 154.211 421.59 154.137C421.626 154.064 421.678 153.999 421.741 153.948C421.806 153.897 421.881 153.861 421.96 153.844C422.04 153.826 422.122 153.826 422.202 153.845C450.464 158.137 476.928 170.353 498.527 189.078C498.587 189.168 498.617 189.274 498.616 189.383C498.614 189.49 498.582 189.595 498.52 189.685C498.458 189.774 498.372 189.842 498.272 189.881C498.171 189.922 498.061 189.93 497.955 189.907Z" fill="#EE9B31"/>
<path d="M308.474 389.245C308.383 389.25 308.293 389.231 308.21 389.19C308.129 389.151 308.06 389.091 308.006 389.017C307.954 388.942 307.921 388.856 307.91 388.765C307.9 388.676 307.913 388.583 307.947 388.499C307.982 388.414 308.037 388.34 308.107 388.283C308.178 388.226 308.261 388.187 308.35 388.169C308.439 388.153 308.532 388.159 308.618 388.187C308.706 388.216 308.784 388.265 308.845 388.331C308.917 388.408 308.965 388.502 308.983 388.604C309.003 388.706 308.993 388.812 308.952 388.908C308.913 389.004 308.849 389.086 308.763 389.146C308.678 389.207 308.577 389.241 308.474 389.245Z" fill="#EE9B31"/>
<path d="M497.955 200.422C508.08 201.251 518.271 200.693 528.244 198.765L527.587 168.733C517.654 170.458 507.515 170.642 497.526 169.275C498.483 179.63 498.625 190.045 497.955 200.422Z" fill="#BFD8D5"/>
<path d="M407.801 145.673C399.855 152.356 391.041 157.931 381.598 162.246C376.797 152.788 370.481 142.244 364.453 131.957C372.106 125.152 380.786 119.597 390.17 115.497L407.801 145.673Z" fill="#BFD8D5"/>
<path d="M165.228 447.368L163.684 448.082C155.112 449.225 140.453 450.94 140.453 450.94C151.883 447.482 152.283 414.677 152.226 410.706C152.055 396.418 148.226 391.588 146.197 390.16C148.368 390.531 153.398 391.017 156.884 391.303V391.618C156.956 391.726 157.065 391.804 157.19 391.838C157.315 391.874 157.449 391.863 157.566 391.807C157.684 391.752 157.778 391.656 157.831 391.538C157.884 391.418 157.892 391.285 157.855 391.16L136.595 345.44C134.753 341.564 131.466 338.565 127.438 337.086C123.41 335.606 118.963 335.763 115.05 337.525L84.9604 351.613C90.1897 344.698 110.678 316.865 113.135 298.463C116.25 276.46 83.6174 266.287 79.5883 294.091C76.4165 316.751 80.6171 341.954 82.2173 350.155C77.3595 343.326 62.0147 322.951 43.3838 309.693C20.5238 293.376 5.40765 324.151 23.3813 336.953C38.6404 347.784 73.1875 352.184 81.5029 353.098L52.0135 366.871C50.0515 367.783 48.2891 369.074 46.8273 370.668C45.3654 372.264 44.2328 374.132 43.4947 376.166C42.7566 378.199 42.4275 380.36 42.5261 382.521C42.6248 384.682 43.1494 386.802 44.0696 388.76L81.6458 469.514C83.5031 473.438 86.8414 476.467 90.9286 477.935C95.0158 479.403 99.5181 479.19 103.448 477.343L165.684 448.339C165.793 448.267 165.871 448.159 165.907 448.032C165.941 447.907 165.93 447.774 165.874 447.657C165.819 447.538 165.723 447.444 165.605 447.392C165.486 447.339 165.352 447.331 165.228 447.368ZM80.7599 294.263C84.4747 267.888 115.05 277.717 112.192 298.206C109.335 317.008 87.7894 345.897 83.6174 351.613C82.3887 345.698 77.2452 318.495 80.7599 294.263ZM24.01 336.068C7.1793 324.094 21.1525 295.091 42.7838 310.578C62.7863 324.866 78.9025 347.24 82.2744 352.098C75.3878 351.384 39.4976 347.07 24.01 336.068ZM127.251 465.084L76.7309 356.499L91.1612 349.755L141.71 458.34L127.251 465.084Z" fill="#CD6A48"/>
<path d="M247.924 310.036C256.868 301.463 249.239 293.177 245.066 299.377C243.066 302.235 241.952 302.235 241.295 300.577C238.437 290.748 224.349 276.66 220.605 303.835C217.12 328.952 228.264 329.553 236.952 325.952C237.179 326.695 240.98 342.582 244.18 347.24C247.909 341.326 250.866 334.959 252.981 328.295C246.495 320.008 246.81 311.122 247.924 310.036Z" fill="#BFD8D5"/>
<path d="M324.305 349.984C318.59 339.554 301.731 312.837 291.501 317.637C287.185 319.665 285.786 327.095 287.786 338.582C287.813 338.712 287.887 338.825 287.99 338.903C288.096 338.983 288.226 339.02 288.357 339.01C296.845 338.367 305.244 336.844 313.417 334.468C322.556 347.412 329.695 361.659 334.592 376.729C327.107 382.608 318.364 386.677 309.045 388.617V388.445C309.019 388.369 308.977 388.301 308.92 388.242C308.863 388.185 308.795 388.141 308.719 388.114C308.644 388.085 308.563 388.075 308.482 388.081C308.402 388.089 308.324 388.115 308.256 388.156C308.186 388.197 308.126 388.253 308.082 388.32C308.037 388.387 308.008 388.463 307.996 388.542C307.983 388.622 307.99 388.703 308.012 388.781C308.037 388.857 308.077 388.929 308.131 388.989C313.474 397.561 327.276 416.591 335.878 412.591C341.364 410.019 340.879 399.732 339.25 390.731C336.406 376.458 331.364 362.711 324.305 349.984Z" fill="#EE9B31"/>
<path d="M459.98 443.052C478.354 435.035 494.96 423.461 508.84 408.995C522.718 394.529 533.596 377.458 540.847 358.768C548.096 340.077 551.572 320.136 551.077 300.095C550.582 280.053 546.123 260.309 537.96 241.998C537.944 241.92 537.91 241.846 537.861 241.781C537.812 241.716 537.749 241.664 537.678 241.626C537.604 241.589 537.525 241.569 537.445 241.566C537.364 241.565 537.283 241.579 537.21 241.613C537.135 241.646 537.069 241.695 537.017 241.755C536.965 241.816 536.926 241.889 536.905 241.967C536.884 242.045 536.88 242.126 536.895 242.208C536.91 242.287 536.94 242.362 536.989 242.427C545.073 260.608 549.483 280.209 549.962 300.1C550.441 319.992 546.981 339.781 539.78 358.331C532.58 376.879 521.783 393.821 508.008 408.18C494.234 422.539 477.756 434.03 459.522 441.996C365.367 238.798 341.793 187.678 335.449 174.275C334.595 172.379 333.641 170.528 332.592 168.732C345.829 162.179 359.965 157.624 374.54 155.216C374.682 155.189 374.807 155.108 374.891 154.992C374.977 154.875 375.014 154.731 374.997 154.588C374.969 154.448 374.888 154.325 374.771 154.245C374.652 154.165 374.508 154.134 374.368 154.159C359.72 156.603 345.517 161.206 332.22 167.818C329.229 163.185 325.258 159.264 320.589 156.331C315.918 153.398 310.661 151.525 305.187 150.845L160.056 132.156C152.091 131.141 144.019 132.896 137.196 137.129C131.124 140.891 126.379 146.455 123.623 153.045C122.758 154.932 122.337 156.992 122.391 159.068C122.445 161.143 122.974 163.178 123.937 165.018L209.119 352.928C209.192 353.035 209.3 353.114 209.425 353.148C209.55 353.182 209.684 353.171 209.802 353.116C209.919 353.061 210.013 352.965 210.067 352.846C210.119 352.728 210.128 352.595 210.091 352.47L124.794 164.56C120.394 154.959 126.537 146.558 137.053 147.901L284.985 167.247C293.503 168.336 301.601 171.572 308.524 176.651C315.447 181.728 320.965 188.483 324.562 196.278C470.437 510.718 489.383 552.238 491.782 557.352C492.269 558.323 493.127 557.638 492.868 557.067L325.534 195.822C321.857 187.865 316.221 180.969 309.154 175.782C302.088 170.595 293.822 167.284 285.128 166.161L137.196 146.844C135.36 146.528 133.481 146.581 131.666 146.998C129.851 147.415 128.137 148.188 126.623 149.273C130.027 143.666 134.983 139.165 140.891 136.315C146.798 133.466 153.406 132.388 159.913 133.214L304.931 151.902C310.605 152.747 316.012 154.875 320.74 158.123C325.469 161.371 329.395 165.654 332.22 170.647C335.42 176.962 354.336 218.11 511.814 557.466C511.837 557.541 511.874 557.611 511.926 557.669C511.978 557.728 512.041 557.775 512.113 557.807C512.184 557.84 512.262 557.854 512.34 557.854C512.418 557.854 512.494 557.836 512.566 557.802C512.635 557.77 512.699 557.721 512.749 557.661C512.799 557.601 512.837 557.531 512.858 557.456C512.877 557.382 512.882 557.302 512.871 557.226C512.858 557.148 512.829 557.075 512.785 557.01L459.98 443.052Z" fill="#EE9B31"/>
<path d="M142.939 175.504C139.424 167.961 144.025 161.389 150.054 165.075C156.084 168.762 157.598 178.82 152.569 181.163C148.969 182.848 144.797 179.505 142.939 175.504ZM145.225 165.446C140.968 167.417 142.625 176.477 147.826 179.734C148.456 180.174 149.19 180.445 149.956 180.52C150.721 180.594 151.493 180.473 152.198 180.163C156.455 178.191 154.826 169.132 149.597 165.875C148.964 165.44 148.231 165.172 147.466 165.097C146.702 165.023 145.931 165.143 145.225 165.446Z" fill="#EE9B31"/>
<path d="M86.1607 201.422L70.9874 208.452L63.9294 193.278C63.907 193.203 63.8688 193.135 63.8172 193.076C63.7657 193.016 63.7021 192.969 63.6306 192.938C63.5594 192.906 63.4819 192.89 63.4038 192.891C63.3257 192.891 63.2488 192.909 63.178 192.943C63.1074 192.976 63.0447 193.025 62.9942 193.083C62.9439 193.143 62.907 193.213 62.8861 193.289C62.8651 193.364 62.8608 193.443 62.8731 193.52C62.8856 193.598 62.9145 193.671 62.9578 193.736L69.9873 208.91L54.814 215.938C54.7055 215.992 54.6182 216.081 54.566 216.191C54.5139 216.3 54.4998 216.424 54.5261 216.542C54.5524 216.661 54.6175 216.766 54.7112 216.844C54.8047 216.92 54.9214 216.964 55.0426 216.967C55.2712 216.967 54.6997 217.224 70.4445 209.881L77.5025 225.054C77.5754 225.155 77.6805 225.227 77.8004 225.259C77.9204 225.292 78.0479 225.283 78.1617 225.233C78.2753 225.183 78.3684 225.095 78.4254 224.985C78.4822 224.874 78.4994 224.748 78.4741 224.626L71.416 209.452L86.6179 202.394C86.7261 202.321 86.8045 202.212 86.8394 202.087C86.8741 201.962 86.8628 201.829 86.8074 201.711C86.752 201.594 86.6564 201.5 86.5377 201.446C86.4191 201.394 86.2853 201.384 86.1607 201.422Z" fill="#CD6A47"/>
<path d="M280.27 55.0612L271.698 39.3449C271.631 39.2293 271.526 39.1421 271.399 39.0999C271.272 39.0579 271.134 39.0637 271.013 39.1163L238.151 52.8895L267.355 32.4869C267.468 32.4111 267.548 32.2955 267.58 32.1632C267.611 32.0309 267.592 31.8916 267.527 31.7726L258.954 16.0564C258.633 15.4707 258.175 14.9706 257.621 14.5982C257.066 14.2258 256.431 13.9919 255.767 13.9163C255.103 13.8407 254.431 13.9256 253.808 14.1637C253.184 14.4019 252.626 14.7863 252.181 15.2849L206.889 65.5482C206.319 66.1985 205.966 67.0088 205.873 67.8683C205.78 68.728 205.956 69.5951 206.375 70.3514C206.794 71.1078 207.435 71.7165 208.213 72.0945C208.99 72.4725 209.865 72.6014 210.719 72.4634L277.327 61.2048C277.986 61.0928 278.606 60.8244 279.139 60.4224C279.673 60.0204 280.1 59.4966 280.389 58.8948C280.678 58.2929 280.817 57.6307 280.796 56.9635C280.775 56.2966 280.595 55.6442 280.27 55.0612ZM277.127 60.1475L210.52 71.4061C209.882 71.5283 209.222 71.4467 208.635 71.1728C208.047 70.8989 207.56 70.4467 207.243 69.8804C206.927 69.3141 206.797 68.6626 206.871 68.0182C206.948 67.3739 207.224 66.7696 207.662 66.2912L252.811 15.9992C253.139 15.6264 253.553 15.3385 254.015 15.1599C254.48 14.9813 254.98 14.9173 255.473 14.9734C255.967 15.0295 256.441 15.2041 256.852 15.4821C257.264 15.7603 257.602 16.1337 257.839 16.5707L266.411 31.8583L233.55 54.7183C233.419 54.7751 233.313 54.8824 233.26 55.0164C233.206 55.1503 233.208 55.3002 233.264 55.4327C233.321 55.5653 233.428 55.67 233.563 55.7236C233.696 55.7772 233.847 55.7752 233.979 55.7184L271.126 40.1736L279.556 55.4612C279.824 55.9158 279.972 56.4308 279.986 56.9583C280.001 57.4857 279.881 58.0081 279.639 58.4765C279.395 58.945 279.038 59.344 278.598 59.6363C278.16 59.9287 277.653 60.1045 277.127 60.1475Z" fill="#CD6A47"/>
<path d="M498.898 460.198C498.27 459.855 498.898 458.882 499.413 459.227C525.13 473.027 530.846 433.022 557.248 447.253C557.321 447.28 557.388 447.323 557.443 447.378C557.498 447.433 557.542 447.498 557.57 447.571C557.597 447.644 557.609 447.722 557.602 447.8C557.597 447.878 557.574 447.954 557.537 448.022C557.5 448.09 557.448 448.151 557.386 448.198C557.323 448.245 557.251 448.277 557.175 448.293C557.099 448.31 557.021 448.31 556.945 448.293C556.868 448.276 556.797 448.243 556.733 448.196C530.959 434.223 525.501 474.485 498.898 460.198Z" fill="#CD6A47"/>
<path d="M97.2764 394.475C92.5801 391.994 88.0636 389.187 83.7605 386.075C78.0455 381.759 79.7314 377.931 85.3035 380.873C90.8727 383.475 96.5989 385.727 102.449 387.617C98.4839 385.187 94.7191 382.444 91.19 379.416C85.8179 374.672 87.9038 371.615 93.4188 374.645C101.126 379.186 109.347 382.793 117.908 385.388C115.074 381.282 112.851 376.788 111.307 372.044C110.164 366.871 114.479 368.443 122.365 377.044C128.555 383.503 136.503 388.003 145.225 389.989C150.197 390.874 153.226 404.648 151.998 421.163C151.998 423.107 151.655 424.993 151.426 426.878C149.912 427.393 123.223 420.05 107.535 413.935C101.22 411.477 94.6761 409.019 88.5611 406.019C82.446 403.018 82.8461 399.875 88.7039 401.304C91.6408 401.906 94.6073 402.354 97.5908 402.648C92.7928 400.867 88.1238 398.758 83.6176 396.332C77.474 392.847 78.6741 388.846 84.5606 390.989C88.7379 392.364 92.9819 393.527 97.2764 394.475Z" fill="#BFD8D5"/>
<path d="M291.043 531.263C297.925 527.922 303.229 522.027 305.827 514.831C308.426 507.637 308.111 499.711 304.952 492.744C301.792 485.777 296.038 480.32 288.914 477.534C281.79 474.748 273.859 474.854 266.812 477.828L242.381 423.907C242.35 423.842 242.308 423.782 242.254 423.734C242.202 423.685 242.141 423.646 242.072 423.62C242.004 423.596 241.933 423.584 241.86 423.586C241.788 423.589 241.717 423.605 241.652 423.636C241.585 423.665 241.527 423.709 241.478 423.761C241.428 423.815 241.39 423.876 241.364 423.945C241.34 424.011 241.329 424.084 241.33 424.156C241.334 424.227 241.35 424.299 241.381 424.365L265.812 478.257C259.117 481.707 254.004 487.597 251.533 494.712C249.06 501.826 249.419 509.618 252.531 516.474C255.644 523.332 261.274 528.73 268.257 531.552C275.24 534.374 283.04 534.403 290.043 531.635L301.788 557.495C301.859 557.604 301.968 557.682 302.094 557.716C302.219 557.752 302.353 557.741 302.469 557.685C302.588 557.63 302.682 557.534 302.734 557.416C302.788 557.297 302.796 557.163 302.758 557.038L291.043 531.263ZM293.644 481.143C297.841 483.874 301.237 487.672 303.487 492.146C305.736 496.619 306.757 501.612 306.447 506.609C306.136 511.607 304.504 516.433 301.718 520.595C298.93 524.754 295.089 528.102 290.587 530.292L267.241 478.857C271.492 477.044 276.124 476.303 280.728 476.701C285.333 477.101 289.768 478.625 293.644 481.143Z" fill="#EE9B31"/>
<path d="M334.42 376.216C325.994 382.845 315.95 387.109 305.327 388.565C294.704 390.023 283.884 388.62 273.984 384.503C273.984 368.615 273.984 369.243 273.984 368.957C273.948 368.85 273.878 368.756 273.786 368.691C273.695 368.624 273.583 368.589 273.469 368.589C273.355 368.589 273.245 368.624 273.153 368.691C273.062 368.756 272.992 368.85 272.956 368.957C265.926 387.588 252.954 406.39 241.837 423.25C238.869 427.741 234.467 431.095 229.35 432.765C201.512 441.323 172.906 447.152 143.939 450.167C153.626 441.281 156.369 400.161 147.911 390.989C169.221 393.53 190.73 393.933 212.119 392.189C212.192 392.186 212.263 392.166 212.328 392.132C212.392 392.096 212.449 392.048 212.491 391.989C226.379 374.473 246.409 350.44 253.324 329.41C254.442 330.753 255.676 331.995 257.011 333.125C261.24 336.724 269.897 339.296 281.899 339.296C292.577 339.13 303.181 337.505 313.417 334.468L312.732 333.553C283.071 341.84 263.64 337.325 257.553 332.295C255.334 330.433 253.408 328.246 251.838 325.809C253.035 326.38 254.347 326.666 255.671 326.645C256.996 326.624 258.298 326.296 259.474 325.687C260.651 325.078 261.671 324.205 262.453 323.135C263.236 322.065 263.758 320.829 263.983 319.522C265.338 320.665 267.014 321.36 268.78 321.511C270.545 321.662 272.315 321.261 273.844 320.365C275.374 319.469 276.586 318.121 277.319 316.506C278.049 314.892 278.262 313.091 277.927 311.351C279.592 311.901 281.384 311.929 283.063 311.429C284.743 310.93 286.229 309.927 287.323 308.558C288.416 307.188 289.062 305.516 289.176 303.767C289.289 302.019 288.864 300.277 287.958 298.778C290.046 298.796 292.07 298.051 293.649 296.684C295.227 295.315 296.251 293.419 296.53 291.349C296.748 289.748 296.511 288.118 295.844 286.647C295.176 285.176 294.106 283.922 292.757 283.033C294.33 282.549 295.735 281.628 296.806 280.38C297.88 279.129 298.576 277.603 298.816 275.975C299.102 273.994 298.688 271.978 297.646 270.271C296.602 268.565 294.995 267.276 293.101 266.631C294.449 265.501 295.417 263.985 295.875 262.286C296.332 260.59 296.256 258.791 295.657 257.138C295.058 255.485 293.965 254.057 292.527 253.045C291.088 252.034 289.372 251.49 287.614 251.486C288.443 249.957 288.788 248.213 288.601 246.484C288.416 244.755 287.708 243.123 286.573 241.807C285.44 240.488 283.931 239.548 282.249 239.107C280.567 238.667 278.791 238.749 277.156 239.342C277.418 237.587 277.13 235.794 276.33 234.21C275.531 232.625 274.26 231.33 272.693 230.498C271.125 229.667 269.337 229.344 267.579 229.571C265.819 229.799 264.173 230.567 262.869 231.77C262.611 229.915 261.753 228.196 260.427 226.876C259.102 225.555 257.379 224.704 255.525 224.454H254.981C253.187 224.197 251.359 224.514 249.757 225.361C248.156 226.209 246.864 227.542 246.066 229.169C245.209 227.581 243.874 226.305 242.249 225.519C240.624 224.735 238.794 224.483 237.018 224.8C235.242 225.116 233.61 225.985 232.357 227.282C231.103 228.581 230.292 230.24 230.035 232.026C228.681 230.909 227.015 230.235 225.263 230.096C223.513 229.956 221.761 230.359 220.247 231.247C218.732 232.135 217.527 233.468 216.793 235.064C216.061 236.66 215.835 238.443 216.149 240.17C214.48 239.636 212.689 239.625 211.015 240.139C209.339 240.654 207.864 241.669 206.784 243.047C205.704 244.425 205.071 246.103 204.974 247.851C204.875 249.6 205.314 251.337 206.233 252.829C204.201 252.868 202.251 253.629 200.726 254.974C199.203 256.32 198.208 258.161 197.917 260.173C197.692 261.747 197.909 263.355 198.546 264.813C199.181 266.271 200.21 267.524 201.519 268.43C199.754 268.945 198.2 270.011 197.088 271.474C195.976 272.937 195.362 274.72 195.341 276.558C195.318 278.396 195.886 280.191 196.963 281.682C198.039 283.172 199.565 284.276 201.317 284.833C199.986 285.971 199.034 287.491 198.593 289.188C198.151 290.883 198.241 292.673 198.848 294.318C199.455 295.961 200.551 297.38 201.989 298.382C203.428 299.384 205.138 299.921 206.889 299.921C206.066 301.455 205.73 303.204 205.925 304.935C206.121 306.665 206.839 308.297 207.984 309.609C209.128 310.921 210.646 311.854 212.335 312.283C214.023 312.712 215.801 312.616 217.435 312.007C217.21 313.444 217.355 314.913 217.855 316.277C218.355 317.642 219.193 318.857 220.292 319.808C222.463 328.124 228.692 329.809 236.551 326.639C236.866 327.981 237.723 331.238 238.893 335.211C220.178 347.732 199.859 357.67 178.486 364.757C168.071 366.306 157.577 367.261 147.054 367.615L147.54 368.671C158.017 368.339 168.466 367.384 178.829 365.814C200.221 358.716 220.553 348.747 239.265 336.182C240.428 340.006 241.889 343.732 243.637 347.326C234.865 362.385 222.492 377.559 211.663 391.132C189.954 392.895 168.123 392.426 146.511 389.731C137.435 387.948 129.126 383.418 122.708 376.759C118.593 372.273 113.278 367.272 111.278 368.787C109.278 370.3 113.107 378.217 116.993 384.673C108.866 382.199 101.059 378.775 93.733 374.473C87.7608 371.157 84.8748 374.815 90.8755 380.188C93.282 382.256 95.8211 384.165 98.4765 385.903C94.0767 384.391 89.7648 382.636 85.5606 380.645C79.6741 377.559 76.9881 381.816 83.4174 386.76C86.7589 389.158 90.242 391.353 93.8473 393.332C89.8182 392.275 86.4178 391.189 84.8176 390.617C78.5597 388.361 76.4451 392.989 83.446 396.933C86.7144 398.726 90.0929 400.31 93.5616 401.676C91.6756 401.419 90.1611 401.161 88.8467 400.848C85.9892 400.161 84.0747 400.476 83.646 401.648C83.2174 402.819 84.9033 404.905 88.3323 406.59C102.695 413.11 117.518 418.564 132.681 422.907C132.281 431.908 133.652 453.596 141.539 451.482C171.39 448.521 200.872 442.596 229.55 433.795C234.942 432.067 239.587 428.562 242.723 423.85C251.9 410.68 260.307 396.988 267.897 382.845C277.106 387.632 287.323 390.15 297.701 390.189C311.177 390.164 324.255 385.628 334.849 377.301C334.649 376.931 334.535 376.586 334.42 376.216ZM239.152 332.125L241.809 323.809C241.84 323.702 241.837 323.586 241.801 323.481C241.765 323.375 241.697 323.283 241.606 323.216C241.515 323.151 241.407 323.115 241.295 323.114C241.183 323.112 241.072 323.145 240.98 323.21C236.866 326.067 229.865 328.666 225.463 326.067C221.063 323.466 219.748 315.923 221.12 303.978C222.492 292.034 226.32 288.861 229.064 288.661C233.693 288.319 239.122 294.92 240.78 300.806C240.78 301.148 241.381 302.149 242.322 302.235C243.266 302.321 244.18 301.52 245.466 299.635C249.21 293.92 255.782 301.663 247.495 309.578C246.769 310.768 246.458 312.164 246.609 313.551C246.993 318.936 248.984 324.083 252.324 328.324C250.258 334.539 247.539 340.515 244.209 346.154C242.15 341.621 240.459 336.929 239.152 332.125ZM88.8181 405.533C85.332 403.819 84.5033 402.362 84.6747 401.934C84.8462 401.505 85.9892 401.19 88.6181 401.934C90.8184 402.447 93.4473 402.791 97.5621 403.304C97.8478 403.304 99.8195 404.191 103.734 405.447C103.805 405.48 103.881 405.498 103.959 405.498C104.036 405.499 104.113 405.483 104.184 405.45C104.255 405.42 104.318 405.372 104.369 405.314C104.421 405.257 104.459 405.187 104.482 405.114C104.504 405.04 104.511 404.962 104.501 404.884C104.491 404.807 104.464 404.734 104.423 404.668C104.382 404.601 104.328 404.546 104.263 404.502C104.198 404.46 104.125 404.431 104.049 404.419C97.161 402.174 90.4708 399.365 84.0461 396.017C80.76 394.16 80.017 392.389 80.3313 391.704C80.6457 391.017 82.0744 390.76 84.5604 391.704C88.7795 393.171 93.0831 394.382 97.4478 395.332C100.791 397.16 103.734 398.648 105.306 399.419C105.935 399.705 106.42 398.732 105.763 398.446C98.2342 394.806 90.9849 390.613 84.0747 385.903C80.9886 383.56 80.5028 381.673 80.9028 381.045C81.3029 380.416 82.7316 380.387 85.0462 381.616C90.617 384.206 96.3431 386.45 102.191 388.331C104.391 389.703 106.192 390.703 107.078 391.189C107.141 391.223 107.211 391.246 107.283 391.252C107.355 391.26 107.428 391.252 107.497 391.231C107.566 391.21 107.631 391.174 107.686 391.129C107.742 391.082 107.787 391.025 107.82 390.96C107.882 390.835 107.892 390.69 107.849 390.557C107.807 390.424 107.715 390.312 107.592 390.246C101.861 387.174 96.4774 383.495 91.5327 379.273C88.6752 376.815 88.3323 375.13 88.6752 374.586C89.0181 374.044 90.7326 374.073 93.1044 375.387C102.329 380.923 112.367 384.972 122.851 387.388C122.986 387.406 123.122 387.372 123.233 387.292C123.344 387.214 123.421 387.097 123.45 386.964C123.478 386.831 123.456 386.693 123.388 386.576C123.319 386.458 123.209 386.372 123.08 386.331C121.451 385.989 119.908 385.588 118.393 385.188C118.393 384.902 109.821 371.243 111.821 369.728C112.278 369.386 114.993 370.1 121.822 377.559C128.238 384.227 136.495 388.833 145.539 390.79C149.94 392.389 152.54 405.733 151.254 421.279C151.254 422.964 150.969 424.678 150.74 426.365C138.996 424.536 104.249 413.106 88.8181 405.533Z" fill="black"/>
<path d="M462.694 137.3C461.946 136.329 461.502 135.158 461.42 133.936C461.337 132.713 461.618 131.494 462.228 130.431C462.837 129.368 463.748 128.51 464.845 127.964C465.943 127.419 467.177 127.21 468.393 127.366C469.609 127.521 470.75 128.033 471.676 128.837C472.6 129.641 473.265 130.701 473.588 131.883C473.911 133.066 473.876 134.317 473.488 135.479C473.1 136.641 472.377 137.663 471.409 138.414C470.104 139.418 468.455 139.864 466.821 139.655C465.188 139.447 463.704 138.6 462.694 137.3ZM464.493 129.442C463.691 130.058 463.09 130.898 462.764 131.856C462.439 132.814 462.407 133.847 462.668 134.824C462.93 135.801 463.477 136.678 464.236 137.345C464.998 138.012 465.938 138.438 466.941 138.57C467.945 138.702 468.964 138.534 469.872 138.086C470.778 137.639 471.533 136.932 472.038 136.056C472.544 135.18 472.778 134.173 472.712 133.164C472.647 132.154 472.281 131.187 471.666 130.385C470.823 129.328 469.598 128.646 468.255 128.485C466.914 128.325 465.561 128.699 464.493 129.528V129.442Z" fill="#CD6A47"/>
<path d="M535.874 194.822C535.874 193.078 533.445 191.593 528.673 190.42L528.016 164.36C539.103 128.042 540.189 111.297 538.359 89.5512C538.351 89.4528 538.316 89.3585 538.257 89.2788C538.199 89.1989 538.121 89.1366 538.03 89.0982C537.937 89.0601 537.838 89.0474 537.741 89.0619C537.642 89.0762 537.551 89.1169 537.475 89.1797C524.215 100.61 499.783 138.957 495.098 153.559C495.085 153.635 495.085 153.712 495.098 153.788C497.077 165.328 497.976 177.027 497.783 188.735C492.984 189.078 478.61 190.45 478.781 195.25C479.553 218.11 481.268 270.031 481.382 277.746C477.41 278.431 465.665 281.062 452.063 284.205C473.723 250.4 469.552 241.628 462.636 227.254C453.264 207.651 424.145 155.817 413.316 138.157C412.459 135.3 406.629 136.986 403.857 137.843L390.627 115.126C388.57 86.9223 386.569 70.5774 377.196 43.0311C377.153 42.9408 377.083 42.8649 376.997 42.8118C376.911 42.7588 376.812 42.7306 376.711 42.7306C376.61 42.7306 376.511 42.7588 376.425 42.8118C376.339 42.8649 376.271 42.9408 376.226 43.0311C366.596 60.1761 356.423 100.181 355.595 118.326C355.574 118.376 355.562 118.429 355.562 118.483C355.562 118.537 355.574 118.591 355.595 118.641C361.995 128.956 371.425 144.987 375.597 152.588C372.168 155.017 361.682 162.789 363.739 166.417C368.653 174.99 405.715 236.941 407.601 240.342C404.057 243.2 390.17 258.172 379.026 268.688L379.512 269.716C391.313 258.601 405.486 243.2 408.601 240.914C409.286 240.399 410.545 243.17 376.112 185.335C394.595 181.72 411.254 171.814 423.261 157.303C432.461 173.334 454.036 211.824 461.665 227.826C468.437 242.113 472.553 250.686 450.55 284.661C440.519 287.004 395.171 297.635 392.799 298.091L393.284 299.091C396.142 298.492 476.152 279.776 481.867 278.86C481.994 278.836 482.107 278.767 482.19 278.668C482.273 278.571 482.32 278.446 482.325 278.318C482.325 273.975 481.295 242.713 480.438 217.482C498.869 223.368 517.243 222.54 535.817 217.482C537.046 244.628 538.046 280.347 536.989 295.005C534.731 326.095 536.989 324.21 423.288 364.242L423.746 365.215C535.903 325.752 535.788 326.752 537.903 296.948C539.704 273.66 537.216 216.396 535.874 194.822ZM365.138 131.957C372.56 125.428 380.932 120.071 389.971 116.069L407.116 145.444C399.43 151.849 390.937 157.219 381.855 161.417C377.054 152.159 370.767 141.615 365.138 132.071V131.957ZM375.711 184.163C371.597 177.248 368.025 171.191 365.71 167.218C375.196 168.846 409.858 148.616 413.173 139.872C415.659 143.958 418.888 149.587 422.689 156.074C410.813 170.682 394.189 180.664 375.711 184.277V184.163ZM527.158 169.247C527.158 170.819 527.93 199.766 527.902 198.222C518.281 200.04 508.46 200.569 498.699 199.793C499.29 189.795 499.147 179.766 498.27 169.789C507.83 171.062 517.526 170.918 527.045 169.361L527.158 169.247ZM480.667 216.11C480.438 208.851 480.209 202.136 480.039 196.765C487.126 202.48 527.988 202.68 535.016 196.507C535.331 201.966 535.703 208.708 536.017 216.11C515.844 221.796 497.699 221.768 480.554 216.224L480.667 216.11Z" fill="black"/>
</g>
</g>
</g>
<defs>
<clipPath id="clip0_10_142">
<rect width="571.5" height="571.5" fill="white" transform="translate(0.75 0.140015)"/>
</clipPath>
<clipPath id="clip1_10_142">
<rect width="571.5" height="571.5" fill="white" transform="translate(0.75 0.140015)"/>
</clipPath>
<clipPath id="clip2_10_142">
<rect width="571.5" height="571.5" fill="white" transform="translate(0.75 0.140015)"/>
</clipPath>
</defs>
</svg>
